<?xml version="1.0" standalone="no"?>
<!DOCTYPE svg PUBLIC "-//W3C//DTD SVG 20010904//EN"
 "http://www.w3.org/TR/2001/REC-SVG-20010904/DTD/svg10.dtd">
<svg version="1.0" xmlns="http://www.w3.org/2000/svg"
 width="259.000000pt" height="306.000000pt" viewBox="0 0 259.000000 306.000000"
 preserveAspectRatio="xMidYMid meet">
<metadata>
Created by potrace 1.16, written by Peter Selinger 2001-2019
</metadata>
<g transform="translate(0.000000,306.000000) scale(0.100000,-0.100000)"
fill="#000000" stroke="none">
<path d="M1250 2945 c-86 -12 -147 -26 -235 -53 -60 -18 -202 -95 -270 -146
-220 -165 -355 -380 -411 -655 -32 -155 -29 -275 10 -423 92 -347 386 -846
844 -1431 91 -115 133 -147 198 -147 80 0 121 40 320 310 388 527 622 931 713
1235 58 195 50 403 -24 620 -45 130 -146 287 -252 392 -178 175 -382 269 -653
303 -101 12 -118 12 -240 -5z m360 -190 c157 -43 275 -110 394 -224 187 -180
279 -390 279 -641 1 -106 -2 -123 -35 -220 -37 -110 -122 -305 -162 -375 -13
-22 -43 -76 -66 -120 -35 -64 -221 -353 -307 -475 -89 -127 -309 -413 -321
-417 -17 -7 -9 -17 -199 236 -335 446 -519 755 -650 1094 -73 191 -79 325 -22
521 86 291 317 522 609 610 47 14 101 27 120 30 67 8 305 -4 360 -19z"/>
<path d="M1249 2304 c-208 -64 -334 -271 -301 -493 25 -172 141 -307 305 -356
73 -22 201 -19 281 5 102 32 191 106 241 202 131 249 13 559 -241 638 -79 24
-215 26 -285 4z m247 -178 c95 -44 164 -147 164 -246 0 -57 -35 -142 -77 -185
-172 -177 -466 -60 -466 185 0 198 202 329 379 246z"/>
</g>
</svg>
